<svg width="732" height="102" viewBox="0 0 732 102" fill="none" xmlns="http://www.w3.org/2000/svg">
<path fill-rule="evenodd" clip-rule="evenodd" d="M663.833 98.6552H731.632V83.2965H680.713V1.80055H663.833V98.6552ZM554.083 83.2965V98.6552H626.447V83.2965H570.963H554.083ZM554.083 42.0659V57.4232H570.963H625.753V42.0659H570.963H554.083ZM625.753 1.80055H554.083V17.1592H570.963H625.753V1.80055ZM488.331 17.5739H519.047V1.80055H440.457V17.5739H471.175V98.6552H488.331V17.5739ZM387.436 98.6552H404.315V1.80055H387.436V98.6552ZM314.904 79.9752C312.597 81.4525 310.061 82.6045 307.293 83.4352C304.528 84.2645 301.528 84.6805 298.3 84.6805C293.504 84.6805 289.077 83.7579 285.017 81.9125C280.959 80.0685 277.477 77.5765 274.571 74.4419C271.667 71.3045 269.405 67.6379 267.792 63.4419C266.177 59.2432 265.369 54.7939 265.369 50.0899C265.369 45.3859 266.177 40.9339 267.792 36.7379C269.405 32.5406 271.643 28.8979 274.501 25.8072C277.361 22.7165 280.797 20.2725 284.809 18.4739C288.823 16.6752 293.227 15.7752 298.024 15.7752C302.82 15.7752 307.248 16.6992 311.305 18.5432C315.365 20.3872 318.848 22.8779 321.752 26.0152C324.659 29.1512 326.919 32.8179 328.532 37.0152C330.147 41.2112 330.955 45.6619 330.955 50.3672C330.955 53.7792 330.539 57.0299 329.709 60.1219C328.879 63.2112 327.633 66.0472 325.972 68.6299L309.231 53.4099L298.3 65.8632L314.904 79.9752ZM338.979 79.9752C342.115 75.7339 344.537 71.0739 346.243 66.0019C347.949 60.9272 348.803 55.6245 348.803 50.0899C348.803 43.2632 347.557 36.8072 345.067 30.7192C342.576 24.6299 339.117 19.3272 334.689 14.8072C330.261 10.2872 324.959 6.71255 318.777 4.08455C312.597 1.45522 305.773 0.14055 298.3 0.14055C290.829 0.14055 284.003 1.47789 277.823 4.15389C271.643 6.82855 266.292 10.4486 261.773 15.0152C257.252 19.5806 253.748 24.9072 251.257 30.9952C248.767 37.0832 247.521 43.5405 247.521 50.3672C247.521 57.1912 248.767 63.6485 251.257 69.7379C253.748 75.8259 257.207 81.1285 261.635 85.6485C266.061 90.1699 271.365 93.7419 277.545 96.3725C283.727 99.0005 290.552 100.315 298.024 100.315C303.743 100.315 309.047 99.5085 313.936 97.8939C318.824 96.2805 323.344 94.0432 327.496 91.1832L339.117 101.561L350.048 89.3845L338.979 79.9752ZM196.575 33.4165C196.575 38.4219 194.776 42.4099 191.156 45.3619C187.557 48.3379 182.692 49.8125 176.581 49.8125H151.607V17.1592H176.443C182.831 17.1592 187.788 18.5192 191.295 21.2646C194.821 23.9859 196.575 28.0432 196.575 33.4165ZM216.915 98.6552L190.764 61.9885C194.176 61.0672 197.289 59.7525 200.103 58.0459C202.916 56.3392 205.337 54.2632 207.367 51.8192C209.396 49.3752 210.988 46.5619 212.14 43.3792C213.293 40.1965 213.871 36.5765 213.871 32.5165C213.871 27.8139 213.04 23.5472 211.38 19.7179C209.719 15.8912 207.344 12.6619 204.253 10.0339C201.164 7.40455 197.381 5.37522 192.908 3.94589C188.435 2.51655 183.429 1.80055 177.895 1.80055H134.727V98.6552H151.607V64.8952H172.983L196.851 98.6552H216.915ZM67.0375 60.1899H33.6934L50.2961 21.4486L67.0375 60.1899ZM58.4601 1.10989H42.6868L0.0708008 98.6552H17.5041L27.4668 75.2712H73.2655L83.0881 98.6552H101.076L58.4601 1.10989Z" fill="white"/>
</svg>
