<svg width="85" height="32" viewBox="0 0 85 32" fill="none" xmlns="http://www.w3.org/2000/svg">
<path d="M15.588 31.138C12.444 31.138 9.696 30.478 7.344 29.158C4.992 27.862 3.18 26.074 1.908 23.794C0.636 21.49 0 18.91 0 16.054C0 13.198 0.636 10.618 1.908 8.314C3.18 6.01 4.992 4.198 7.344 2.878C9.72 1.534 12.468 0.862 15.588 0.862H25.704V3.202H15.588C12.9 3.202 10.572 3.766 8.604 4.894C6.66 5.998 5.172 7.534 4.14 9.502C3.108 11.446 2.592 13.642 2.592 16.09C2.592 18.538 3.096 20.722 4.104 22.642C5.136 24.562 6.636 26.074 8.604 27.178C10.572 28.258 12.9 28.798 15.588 28.798H25.704V31.138H15.588ZM12.492 20.986H18.612C19.356 20.986 19.908 20.806 20.268 20.446C20.652 20.062 20.844 19.642 20.844 19.186C20.844 18.682 20.676 18.274 20.34 17.962C20.028 17.626 19.464 17.374 18.648 17.206L16.596 16.774C15.012 16.438 13.896 15.946 13.248 15.298C12.6 14.626 12.276 13.738 12.276 12.634C12.276 11.554 12.66 10.642 13.428 9.898C14.22 9.13 15.396 8.746 16.956 8.746H22.572V10.906H17.136C16.344 10.906 15.756 11.086 15.372 11.446C15.012 11.782 14.832 12.166 14.832 12.598C14.832 13.078 15 13.474 15.336 13.786C15.672 14.074 16.26 14.302 17.1 14.47L19.188 14.902C20.652 15.214 21.732 15.718 22.428 16.414C23.148 17.11 23.508 18.034 23.508 19.186C23.508 20.314 23.1 21.274 22.284 22.066C21.468 22.834 20.244 23.218 18.612 23.218H12.492V20.986Z" fill="#0A0403"/>
<path d="M23.7375 0.862H32.9895V3.202H23.7375V0.862ZM23.7375 28.798H32.9895V31.138H23.7375V28.798ZM27.0495 8.746H29.6775V23.218H27.0495V8.746Z" fill="#0A0403"/>
<path d="M31.0191 0.862H45.6711V3.202H31.0191V0.862ZM31.0191 28.798H45.6711V31.138H31.0191V28.798ZM34.3311 8.746H36.9591V20.986H43.8351V23.218H34.3311V8.746Z" fill="#0A0403"/>
<path d="M41.8514 0.862H59.5274V3.202H41.8514V0.862ZM41.8514 28.798H59.5274V31.138H41.8514V28.798ZM43.5794 8.746H46.4594L50.7794 20.626L55.0274 8.746H57.7994L52.3274 23.218H49.0514L43.5794 8.746Z" fill="#0A0403"/>
<path d="M57.5353 28.798H69.1273C71.8153 28.798 74.1313 28.246 76.0753 27.142C78.0433 26.014 79.5433 24.478 80.5753 22.534C81.6073 20.566 82.1233 18.358 82.1233 15.91C82.1233 13.462 81.6073 11.278 80.5753 9.358C79.5673 7.438 78.0793 5.938 76.1113 4.858C74.1433 3.754 71.8153 3.202 69.1273 3.202H57.5353V0.862H69.1273C72.2713 0.862 75.0193 1.522 77.3713 2.842C79.7233 4.138 81.5353 5.938 82.8073 8.242C84.0793 10.522 84.7153 13.09 84.7153 15.946C84.7153 18.802 84.0793 21.382 82.8073 23.686C81.5353 25.99 79.7113 27.802 77.3353 29.122C74.9833 30.466 72.2473 31.138 69.1273 31.138H57.5353V28.798ZM60.8473 8.746H67.7953C69.1393 8.746 70.2433 9.118 71.1073 9.862C71.9953 10.606 72.4393 11.602 72.4393 12.85C72.4393 14.098 71.9833 15.094 71.0713 15.838C70.1593 16.558 69.0553 16.918 67.7593 16.918H65.1313L66.2113 16.45C67.0753 17.314 67.5073 17.746 67.5073 17.746L67.7953 18.034L72.8353 23.218H69.4153L63.4393 16.882V23.218H60.8473V8.746ZM67.3633 14.83C68.1073 14.83 68.6833 14.662 69.0913 14.326C69.4993 13.966 69.7033 13.486 69.7033 12.886C69.7033 12.286 69.4993 11.806 69.0913 11.446C68.6833 11.086 68.1073 10.906 67.3633 10.906H63.4393V14.83H67.3633Z" fill="#0A0403"/>
</svg>
